# xmcd
#
# Track frame offsets: 
#        150
#        15240
#        32130
#        43760
#        66270
#        84522
#        97605
#        114757
#        132060
#        147452
#        163232
#        185957
#
# Disc length: 2675 seconds
#
# Revision: 0
# Processed by: cddbd v1.4PL0 Copyright (c) Steve Scherf et al.
# Submitted via: ExactAudioCopy v0.90b4
#
DISCID=9a0a710c
DTITLE=Last Train Home - Time and Water
DYEAR=2003
DGENRE=Country
TTITLE0=Lorelei
TTITLE1=Quarter to 3
TTITLE2=All Right OK
TTITLE3=Time and Water
TTITLE4=Once in a While
TTITLE5=See What Love Can Do
TTITLE6=Blue Skies
TTITLE7=He's the Kind
TTITLE8=All Gone Now
TTITLE9=Best Wishes
TTITLE10=Walls of Time
TTITLE11=Las Lagrimas del Pollo Rico
EXTD=
EXTT0=
EXTT1=
EXTT2=
EXTT3=
EXTT4=
EXTT5=
EXTT6=
EXTT7=
EXTT8=
EXTT9=
EXTT10=
EXTT11=
PLAYORDER=
